#!OML:ASF H:\Terrain\Patient Classification 1\PLAYGROUND\JustinFriday\JustinFriday.ASF
:FULLY-SPECIFIED
:DEGREES
1
root 13.3271 31.7893 45.6724 141.454 7.00558 -170.636
lowerback 38.9786 -11.0184 0.0325992
upperback 20.9503 -5.98728 -5.50849
thorax 3.53349 0.967458 -3.79653
lowerneck -8.24805 4.23545 -5.50984
upperneck 11.6957 6.02316 4.81755
head 4.53448 3.087 2.75182
rclavicle 5.725e-014 4.92986e-014
rhumerus 53.2576 23.9784 -84.3082
rradius 101.992
rwrist 21.6494
rhand 0.97805 -30.3885
rfingers 7.12502
rthumb 26.5268 -58.5512
lclavicle 5.725e-014 4.92986e-014
lhumerus 40.0431 10.5797 51.9884
lradius 103.72
lwrist -20.1091
lhand 23.8463 12.3699
lfingers 7.12502
lthumb 48.0998 34.536
rfemur -62.5505 -17.8191 34.0889
rtibia 141.925
rfoot -28.1599 -16.4764
rtoes 19.7355
lfemur -69.1356 21.2962 -9.05249
ltibia 120.719
lfoot -18.6849 -7.70343
ltoes -8.78628
2
root 13.3284 31.6987 45.6344 140.877 7.0163 -170.627
lowerback 39.0647 -11.0243 0.0577021
upperback 20.9732 -5.94904 -5.39369
thorax 3.54873 1.002 -3.69607
lowerneck -7.92911 4.11311 -5.76569
upperneck 11.2936 5.85965 4.87529
head 4.35729 2.99736 2.78233
rclavicle -4.77083e-015 3.97569e-014
rhumerus 53.6094 23.6181 -83.8872
rradius 101.579
rwrist 21.8692
rhand 1.44268 -30.336
rfingers 7.12502
rthumb 26.9715 -58.4308
lclavicle -4.77083e-015 3.97569e-014
lhumerus 39.7003 10.4765 52.1809
lradius 103.709
lwrist -18.7894
lhand 22.6214 11.57
lfingers 7.12502
lthumb 46.9688 34.25
rfemur -63.9048 -17.5723 34.4567
rtibia 142.167
rfoot -28.109 -16.6642
rtoes 18.3973
lfemur -69.1944 21.8951 -8.97755
ltibia 121.477
lfoot -18.7861 -7.86555
ltoes -7.53947
3
root 13.3297 31.608 45.5939 140.435 7.00196 -170.598
lowerback 38.9575 -11.0649 0.123639
upperback 21.0731 -5.93901 -5.33663
thorax 3.69324 1.03237 -3.67324
lowerneck -7.76741 4.00667 -5.91029
upperneck 10.8302 5.71127 4.88853
head 4.19232 2.9164 2.78592
rclavicle -4.29375e-014 2.8625e-014
rhumerus 54.1669 23.2255 -83.5118
rradius 101.145
rwrist 22.2587
rhand 2.17633 -30.2355
rfingers 7.12502
rthumb 27.6732 -58.2197
lclavicle -4.29375e-014 2.8625e-014
lhumerus 39.4262 10.4436 52.343
lradius 103.531
lwrist -18.2027
lhand 20.0213 10.6119
lfingers 7.12502
lthumb 44.555 34.2847
rfemur -65.3328 -17.154 34.8387
rtibia 142.128
rfoot -27.5793 -16.8947
rtoes 16.7026
lfemur -69.4127 22.3782 -8.95215
ltibia 122.26
lfoot -19.1274 -7.72028
ltoes -8.18062
4
root 13.3335 31.5161 45.5546 140.054 6.8775 -170.682
lowerback 38.8271 -11.0591 0.0784425
upperback 21.1019 -5.94806 -5.29988
thorax 3.77379 1.02595 -3.61216
lowerneck -7.57711 3.9205 -6.12897
upperneck 10.5233 5.59997 4.93328
head 4.06577 2.85406 2.81653
rclavicle 3.4191e-014 9.38264e-014
rhumerus 54.6232 22.8809 -83.31
rradius 100.945
rwrist 22.8163
rhand 3.19141 -30.0558
rfingers 7.12502
rthumb 28.6434 -57.8803
lclavicle 3.4191e-014 9.38264e-014
lhumerus 39.2547 10.3532 52.637
lradius 103.057
lwrist -18.5192
lhand 16.2667 9.35138
lfingers 7.12502
lthumb 41.0427 34.2542
rfemur -66.5715 -16.667 34.9511
rtibia 141.893
rfoot -26.9197 -16.8225
rtoes 14.4763
lfemur -69.7531 22.7489 -9.11633
ltibia 123.067
lfoot -19.3033 -7.90327
ltoes -7.97431
5
root 13.338 31.4217 45.5166 139.739 6.90378 -170.548
lowerback 38.6411 -11.1435 0.346463
upperback 21.1318 -5.98331 -5.24284
thorax 3.83571 1.028 -3.68094
lowerneck -7.44694 3.85617 -6.43777
upperneck 10.3661 5.52813 5.03925
head 3.98853 2.8122 2.88771
rclavicle -2.74323e-014 -2.38542e-014
rhumerus 55.0586 22.645 -83.006
rradius 100.514
rwrist 22.5531
rhand 2.86572 -30.0264
rfingers 7.12502
rthumb 28.3322 -57.903
lclavicle -2.74323e-014 -2.38542e-014
lhumerus 39.4822 10.2666 52.9212
lradius 102.054
lwrist -19.5265
lhand 13.1249 7.90359
lfingers 7.12502
lthumb 38.0838 33.68
rfemur -67.8863 -15.7762 35.1304
rtibia 141.264
rfoot -26.1986 -15.9815
rtoes 13.709
lfemur -70.2185 23.3454 -8.97911
ltibia 123.908
lfoot -19.166 -8.60393
ltoes -6.12232
6
root 13.3394 31.3254 45.476 139.548 7.14713 -170.08
lowerback 38.2907 -11.3807 1.05627
upperback 21.2574 -6.05811 -5.19755
thorax 3.9988 1.06097 -3.97633
lowerneck -7.64279 3.7738 -6.67143
upperneck 10.3932 5.43308 5.22132
head 4.02286 2.76677 2.98256
rclavicle -4.01545e-014 3.49861e-014
rhumerus 55.6861 22.4556 -82.6804
rradius 100.074
rwrist 21.8581
rhand 1.72536 -30.0352
rfingers 7.12502
rthumb 27.2419 -58.0879
lclavicle -4.01545e-014 3.49861e-014
lhumerus 40.2026 10.2755 53.1227
lradius 100.852
lwrist -20.6631
lhand 11.689 7.1733
lfingers 7.12502
lthumb 36.7265 33.308
rfemur -68.9531 -14.764 35.7102
rtibia 140.408
rfoot -25.6134 -15.3301
rtoes 12.7391
lfemur -70.9099 24.1364 -8.44213
ltibia 124.807
lfoot -19.6473 -8.38372
ltoes -8.2312
7
root 13.34 31.2307 45.4375 139.426 7.37532 -169.6
lowerback 37.9025 -11.6452 1.82792
upperback 21.3705 -6.16887 -5.1994
thorax 4.14456 1.08112 -4.3441
lowerneck -7.97958 3.65108 -6.92835
upperneck 10.5697 5.27799 5.58842
head 4.12386 2.70286 3.14278
rclavicle 6.04305e-014 1.11319e-014
rhumerus 56.3324 22.2525 -82.4019
rradius 99.6282
rwrist 20.9901
rhand 0.578846 -30.0878
rfingers 7.12502
rthumb 26.1447 -58.3077
lclavicle 6.04305e-014 1.11319e-014
lhumerus 40.9355 10.3589 53.4863
lradius 100.21
lwrist -21.238
lhand 12.1345 7.11922
lfingers 7.12502
lthumb 37.148 33.1453
rfemur -69.8299 -13.8133 36.0948
rtibia 139.374
rfoot -25.23 -14.4593
rtoes 8.76453
lfemur -71.7117 24.7892 -7.94402
ltibia 125.697
lfoot -19.8926 -8.45753
ltoes -8.93832
8
root 13.3442 31.1362 45.3995 139.21 7.27192 -169.54
lowerback 37.5997 -11.7783 2.11909
upperback 21.3912 -6.29823 -5.31848
thorax 4.1983 1.04172 -4.58816
lowerneck -8.11362 3.53962 -7.12592
upperneck 10.7748 5.12438 5.94954
head 4.20251 2.6427 3.28742
rclavicle -2.8625e-014 -1.74931e-014
rhumerus 56.7574 22.0344 -82.3548
rradius 99.2279
rwrist 20.4843
rhand 0.261003 -30.1816
rfingers 7.12502
rthumb 25.8403 -58.4462
lclavicle -2.8625e-014 -1.74931e-014
lhumerus 41.6249 10.4677 53.8481
lradius 99.8187
lwrist -20.8747
lhand 13.6793 7.44559
lfingers 7.12502
lthumb 38.607 33.077
rfemur -70.5508 -13.256 35.6395
rtibia 138.369
rfoot -25.2574 -12.8442
rtoes 7.73999
lfemur -72.3426 25.0696 -8.01454
ltibia 126.53
lfoot -19.9632 -8.51902
ltoes -9.04848
9
root 13.35 31.0436 45.3593 138.926 6.98683 -169.719
lowerback 37.2496 -11.8414 2.11255
upperback 21.4474 -6.42445 -5.5287
thorax 4.32844 0.989409 -4.78245
lowerneck -8.09033 3.53223 -7.10048
upperneck 10.7566 5.08868 6.16553
head 4.18945 2.64001 3.34728
rclavicle -2.54444e-014 1.59028e-015
rhumerus 57.1365 21.7909 -82.4785
rradius 98.8833
rwrist 20.3516
rhand 0.507304 -30.3386
rfingers 7.12502
rthumb 26.0762 -58.5686
lclavicle -2.54444e-014 1.59028e-015
lhumerus 42.4687 10.6183 54.0393
lradius 99.243
lwrist -19.7557
lhand 15.2314 8.02717
lfingers 7.12502
lthumb 40.0694 33.2322
rfemur -71.0513 -12.932 34.7027
rtibia 137.338
rfoot -25.4558 -10.8529
rtoes 7.5449
lfemur -72.8376 25.3978 -8.42742
ltibia 127.279
lfoot -20.1102 -8.68614
ltoes -9.4175
10
root 13.3548 30.9498 45.3186 138.706 6.76529 -169.849
lowerback 36.875 -11.8855 2.15189
upperback 21.4899 -6.52414 -5.68113
thorax 4.45661 0.944114 -4.94909
lowerneck -8.01011 3.53737 -7.17633
upperneck 10.6037 5.06991 6.46267
head 4.1197 2.64564 3.44436
rclavicle 7.03698e-014 -3.97569e-014
rhumerus 57.5028 21.5086 -82.5774
rradius 98.5507
rwrist 20.3488
rhand 1.00159 -30.4753
rfingers 7.12502
rthumb 26.5494 -58.6347
lclavicle 7.03698e-014 -3.97569e-014
lhumerus 43.139 10.7153 54.2807
lradius 98.8208
lwrist -18.6857
lhand 16.5994 8.62699
lfingers 7.12502
lthumb 41.355 33.4295
rfemur -71.524 -12.5376 33.8996
rtibia 136.213
rfoot -25.4436 -9.31128
rtoes 5.5566
lfemur -73.4391 25.9455 -8.79019
ltibia 128.013
lfoot -20.2217 -9.09589
ltoes -9.30837
